<svg xmlns="http://www.w3.org/2000/svg" viewBox="0 0 110 64" role="img" aria-label="Squirreling Sightings — branch variant">
  <path d="M 5 10 Q 55 4 105 8" stroke="#6b4423" stroke-width="6" stroke-linecap="round" fill="none"/>
  <ellipse cx="20" cy="8" rx="6" ry="3" fill="#2d6a4f" transform="rotate(-25 20 8)"/>
  <ellipse cx="92" cy="6" rx="6" ry="3" fill="#52b788" transform="rotate(20 92 6)"/>
  <ellipse cx="80" cy="12" rx="5" ry="2.5" fill="#74c69d" transform="rotate(15 80 12)"/>
  <rect x="53" y="12" width="4" height="6" fill="#1a1a1a"/>
  <rect x="32" y="18" width="46" height="36" rx="6" fill="#1a1a1a"/>
  <rect x="32" y="18" width="46" height="9" rx="6" fill="#262626"/>
  <circle cx="55" cy="36" r="11" fill="#0a0a0a" stroke="#3a3a3a" stroke-width="1"/>
  <circle cx="55" cy="36" r="6.5" fill="#1f1f1f"/>
  <circle cx="52.5" cy="33.5" r="3" fill="#4cc9f0"/>
  <circle cx="51" cy="32" r="1" fill="#fff"/>
  <circle cx="71" cy="24" r="1.6" fill="#52b788"/>
  <g transform="translate(55, 14)">
    <path d="M 13 -2 Q 30 -8 28 6 Q 26 14 14 12 Q 6 8 4 2 Z" fill="#c89464" stroke="#a06c2c" stroke-width="0.4"/>
    <ellipse cx="26" cy="0" rx="3.5" ry="2.5" fill="#d4a574" transform="rotate(15 26 0)"/>
    <ellipse cx="0" cy="2" rx="13" ry="5" fill="#b87333"/>
    <ellipse cx="2" cy="5" rx="8" ry="3" fill="#d4a574"/>
    <circle cx="-12" cy="-3" r="6.5" fill="#b87333"/>
    <ellipse cx="-15" cy="0" rx="2" ry="1.6" fill="#a06c2c" opacity="0.5"/>
    <path d="M -16 -9 L -14 -13 L -11 -9 Z" fill="#b87333"/>
    <path d="M -10 -9 L -8 -13 L -6 -9 Z" fill="#b87333"/>
    <path d="M -14 -10 L -13 -12 L -12 -10 Z" fill="#7a4a26"/>
    <path d="M -8 -10 L -7 -12 L -6 -10 Z" fill="#7a4a26"/>
    <circle cx="-14" cy="-3" r="1.5" fill="#0a0a0a"/>
    <circle cx="-9" cy="-3" r="1.5" fill="#0a0a0a"/>
    <circle cx="-13.5" cy="-3.5" r="0.5" fill="#fff"/>
    <circle cx="-8.5" cy="-3.5" r="0.5" fill="#fff"/>
    <ellipse cx="-17" cy="0" rx="1.2" ry="0.9" fill="#0a0a0a"/>
    <path d="M -19 2 Q -16 4 -13 2" stroke="#0a0a0a" stroke-width="0.7" fill="none" stroke-linecap="round"/>
    <ellipse cx="-9" cy="6" rx="1.8" ry="2" fill="#a06c2c"/>
    <ellipse cx="-1" cy="7" rx="1.8" ry="2" fill="#a06c2c"/>
    <ellipse cx="10" cy="6" rx="2.5" ry="1.8" fill="#a06c2c"/>
  </g>
</svg>
