<svg xmlns="http://www.w3.org/2000/svg" viewBox="0 0 110 64" role="img" aria-label="Squirreling Sightings — tree variant">
  <defs>
    <linearGradient id="g-tl" x1="0" x2="1">
      <stop offset="0" stop-color="#1b4332" stop-opacity="0"/>
      <stop offset="0.3" stop-color="#1b4332" stop-opacity="0.75"/>
      <stop offset="0.7" stop-color="#1b4332" stop-opacity="0.75"/>
      <stop offset="1" stop-color="#1b4332" stop-opacity="0"/>
    </linearGradient>
  </defs>
  <rect x="0" y="58" width="110" height="3" fill="url(#g-tl)"/>
  <rect x="30" y="22" width="10" height="36" fill="#6b4423"/>
  <rect x="36" y="22" width="4" height="36" fill="#5a3a1c"/>
  <ellipse cx="35" cy="14" rx="22" ry="12" fill="#2d6a4f"/>
  <ellipse cx="20" cy="18" rx="10" ry="8" fill="#40916c"/>
  <ellipse cx="50" cy="16" rx="11" ry="9" fill="#52b788"/>
  <ellipse cx="35" cy="8" rx="12" ry="6" fill="#74c69d"/>
  <ellipse cx="28" cy="12" rx="8" ry="6" fill="#52b788"/>
  <ellipse cx="42" cy="11" rx="9" ry="6" fill="#40916c"/>
  <ellipse cx="35" cy="22" rx="18" ry="5" fill="#1b4332"/>
  <circle cx="35" cy="14" r="6" fill="#0a0a0a"/>
  <circle cx="35" cy="14" r="3.5" fill="#1f1f1f"/>
  <circle cx="33.5" cy="12.5" r="1.6" fill="#4cc9f0"/>
  <circle cx="33" cy="12" r="0.5" fill="#fff"/>
  <g transform="translate(48, 44)">
    <path d="M 7 6 Q 18 0 18 -8 Q 16 -18 6 -18 Q -2 -14 2 -6 Z" fill="#c89464" stroke="#a06c2c" stroke-width="0.4"/>
    <ellipse cx="16" cy="-12" rx="3.5" ry="2.5" fill="#d4a574" transform="rotate(-20 16 -12)"/>
    <ellipse cx="0" cy="0" rx="8" ry="11" fill="#b87333"/>
    <ellipse cx="0" cy="3" rx="5" ry="7" fill="#d4a574"/>
    <circle cx="0" cy="-11" r="7" fill="#b87333"/>
    <ellipse cx="-4" cy="-8" rx="2.2" ry="1.8" fill="#a06c2c" opacity="0.5"/>
    <path d="M -6 -16 L -3 -21 L -1 -17 Z" fill="#b87333"/>
    <path d="M 1 -17 L 3 -21 L 6 -16 Z" fill="#b87333"/>
    <path d="M -4 -17 L -3 -19 L -2 -17 Z" fill="#7a4a26"/>
    <path d="M 2 -17 L 3 -19 L 4 -17 Z" fill="#7a4a26"/>
    <circle cx="-3" cy="-12" r="1.7" fill="#0a0a0a"/>
    <circle cx="3" cy="-12" r="1.7" fill="#0a0a0a"/>
    <circle cx="-2.5" cy="-12.5" r="0.6" fill="#fff"/>
    <circle cx="3.5" cy="-12.5" r="0.6" fill="#fff"/>
    <ellipse cx="0" cy="-7" rx="1.2" ry="0.9" fill="#0a0a0a"/>
    <path d="M -2 -5 Q 0 -3.5 2 -5" stroke="#0a0a0a" stroke-width="0.7" fill="none" stroke-linecap="round"/>
    <ellipse cx="-5" cy="-2" rx="2" ry="2.5" fill="#a06c2c"/>
    <ellipse cx="5" cy="-2" rx="2" ry="2.5" fill="#a06c2c"/>
    <ellipse cx="0" cy="-2" rx="2.5" ry="3" fill="#8b5a3c"/>
    <path d="M -3 -4 Q 0 -7 3 -4 L 2.5 -3 L -2.5 -3 Z" fill="#5a3a1c"/>
    <line x1="0" y1="-6" x2="0" y2="-7.5" stroke="#5a3a1c" stroke-width="0.7" stroke-linecap="round"/>
    <ellipse cx="-5" cy="13" rx="3.5" ry="2" fill="#a06c2c"/>
    <ellipse cx="5" cy="13" rx="3.5" ry="2" fill="#a06c2c"/>
  </g>
</svg>
